<svg width="25" height="25" viewBox="0 0 25 25" fill="none" xmlns="http://www.w3.org/2000/svg">
<path d="M23.5472 9.534C22.9772 8.877 22.1512 8.5 21.2802 8.5H21.1942C20.6952 4.006 16.8752 0.5 12.2502 0.5C7.62522 0.5 3.80522 4.006 3.30622 8.5H3.25022C2.38022 8.5 1.55522 8.877 0.984218 9.534C0.413218 10.191 0.157218 11.062 0.280218 11.925L1.34122 19.349C1.76122 22.286 4.31522 24.5 7.28122 24.5H17.2502C20.2162 24.5 22.7702 22.285 23.1902 19.349L24.2512 11.925C24.3742 11.063 24.1172 10.192 23.5472 9.534ZM12.2502 2.5C15.7702 2.5 18.6912 5.113 19.1782 8.5H5.32222C5.80922 5.113 8.73022 2.5 12.2502 2.5ZM8.25022 19.5C8.25022 20.053 7.80322 20.5 7.25022 20.5C6.69722 20.5 6.25022 20.053 6.25022 19.5V13.5C6.25022 12.947 6.69722 12.5 7.25022 12.5C7.80322 12.5 8.25022 12.947 8.25022 13.5V19.5ZM13.2502 19.5C13.2502 20.053 12.8032 20.5 12.2502 20.5C11.6972 20.5 11.2502 20.053 11.2502 19.5V13.5C11.2502 12.947 11.6972 12.5 12.2502 12.5C12.8032 12.5 13.2502 12.947 13.2502 13.5V19.5ZM18.2502 19.5C18.2502 20.053 17.8032 20.5 17.2502 20.5C16.6972 20.5 16.2502 20.053 16.2502 19.5V13.5C16.2502 12.947 16.6972 12.5 17.2502 12.5C17.8032 12.5 18.2502 12.947 18.2502 13.5V19.5Z" fill="#999999"/>
</svg>
