<svg width="15" height="15" viewBox="0 0 15 15" fill="none" xmlns="http://www.w3.org/2000/svg">
<path d="M12.0417 11.7501C12.4174 11.7501 12.7778 11.8993 13.0434 12.165C13.3091 12.4307 13.4584 12.791 13.4584 13.1667C13.4584 13.5425 13.3091 13.9028 13.0434 14.1685C12.7778 14.4342 12.4174 14.5834 12.0417 14.5834C11.2555 14.5834 10.625 13.9459 10.625 13.1667C10.625 12.3805 11.2555 11.7501 12.0417 11.7501ZM0.708374 0.416748H3.02462L3.69046 1.83341H14.1667C14.3546 1.83341 14.5347 1.90804 14.6676 2.04088C14.8004 2.17372 14.875 2.35389 14.875 2.54175C14.875 2.66216 14.8396 2.78258 14.79 2.89591L12.2542 7.47883C12.0134 7.91092 11.5459 8.20842 11.0146 8.20842H5.73754L5.10004 9.363L5.07879 9.448C5.07879 9.49496 5.09745 9.54001 5.13066 9.57322C5.16387 9.60643 5.20891 9.62508 5.25587 9.62508H13.4584V11.0417H4.95837C4.17212 11.0417 3.54171 10.4042 3.54171 9.62508C3.54171 9.37716 3.60546 9.14342 3.71171 8.94508L4.67504 7.20967L2.12504 1.83341H0.708374V0.416748ZM4.95837 11.7501C5.3341 11.7501 5.69443 11.8993 5.96011 12.165C6.22579 12.4307 6.37504 12.791 6.37504 13.1667C6.37504 13.5425 6.22579 13.9028 5.96011 14.1685C5.69443 14.4342 5.3341 14.5834 4.95837 14.5834C4.17212 14.5834 3.54171 13.9459 3.54171 13.1667C3.54171 12.3805 4.17212 11.7501 4.95837 11.7501ZM11.3334 6.79175L13.3025 3.25008H4.34921L6.02087 6.79175H11.3334Z" fill="white"/>
</svg>
