<svg width="21" height="21" viewBox="0 0 21 21" fill="none" xmlns="http://www.w3.org/2000/svg">
<path d="M19.1312 9.375L17.5 7.74488V3.75C17.5 3.13125 16.9938 2.625 16.375 2.625H15.25C14.6312 2.625 14.125 3.13125 14.125 3.75V4.37212L11.875 2.12438C11.5679 1.83413 11.2866 1.5 10.75 1.5C10.2134 1.5 9.93213 1.83413 9.625 2.12438L2.36875 9.375C2.01775 9.74062 1.75 10.0073 1.75 10.5C1.75 11.1334 2.236 11.625 2.875 11.625H4V18.375C4 18.9938 4.50625 19.5 5.125 19.5H7.375C7.99632 19.5 8.5 18.9963 8.5 18.375V13.875C8.5 13.2562 9.00625 12.75 9.625 12.75H11.875C12.4938 12.75 13 13.2562 13 13.875V18.375C13 18.9963 12.9412 19.5 13.5625 19.5H16.375C16.9938 19.5 17.5 18.9938 17.5 18.375V11.625H18.625C19.264 11.625 19.75 11.1334 19.75 10.5C19.75 10.0073 19.4822 9.74062 19.1312 9.375Z" stroke="#93D8A2" stroke-width="2" stroke-linejoin="round"/>
</svg>
