<svg width="131" height="58" viewBox="0 0 131 58" fill="none" xmlns="http://www.w3.org/2000/svg">
<rect width="131" height="58" rx="10" fill="#93D8A2"/>
<path d="M44.8883 14.764C44.8883 15.2113 44.7856 15.622 44.5803 15.996C44.375 16.3627 44.0596 16.6597 43.6343 16.887C43.209 17.1143 42.681 17.228 42.0503 17.228H40.8843V20H39.0033V12.278H42.0503C42.6663 12.278 43.187 12.3843 43.6123 12.597C44.0376 12.8097 44.3566 13.103 44.5693 13.477C44.782 13.851 44.8883 14.28 44.8883 14.764ZM41.9073 15.732C42.2666 15.732 42.5343 15.6477 42.7103 15.479C42.8863 15.3103 42.9743 15.072 42.9743 14.764C42.9743 14.456 42.8863 14.2177 42.7103 14.049C42.5343 13.8803 42.2666 13.796 41.9073 13.796H40.8843V15.732H41.9073ZM47.7485 18.548H50.2125V20H45.8675V12.278H47.7485V18.548ZM55.9167 18.636H53.0347L52.5727 20H50.6037L53.3977 12.278H55.5757L58.3697 20H56.3787L55.9167 18.636ZM55.4327 17.184L54.4757 14.357L53.5297 17.184H55.4327ZM58.9011 16.128C58.9011 15.3653 59.0661 14.687 59.3961 14.093C59.7261 13.4917 60.1844 13.026 60.7711 12.696C61.3651 12.3587 62.0361 12.19 62.7841 12.19C63.7007 12.19 64.4854 12.432 65.1381 12.916C65.7907 13.4 66.2271 14.06 66.4471 14.896H64.3791C64.2251 14.5733 64.0051 14.3277 63.7191 14.159C63.4404 13.9903 63.1214 13.906 62.7621 13.906C62.1827 13.906 61.7134 14.1077 61.3541 14.511C60.9947 14.9143 60.8151 15.4533 60.8151 16.128C60.8151 16.8027 60.9947 17.3417 61.3541 17.745C61.7134 18.1483 62.1827 18.35 62.7621 18.35C63.1214 18.35 63.4404 18.2657 63.7191 18.097C64.0051 17.9283 64.2251 17.6827 64.3791 17.36H66.4471C66.2271 18.196 65.7907 18.856 65.1381 19.34C64.4854 19.8167 63.7007 20.055 62.7841 20.055C62.0361 20.055 61.3651 19.89 60.7711 19.56C60.1844 19.2227 59.7261 18.757 59.3961 18.163C59.0661 17.569 58.9011 16.8907 58.9011 16.128ZM69.48 13.785V15.347H71.999V16.799H69.48V18.493H72.329V20H67.599V12.278H72.329V13.785H69.48ZM79.5332 20.077C78.8072 20.077 78.1399 19.9083 77.5312 19.571C76.9299 19.2337 76.4495 18.7643 76.0902 18.163C75.7382 17.5543 75.5622 16.8723 75.5622 16.117C75.5622 15.3617 75.7382 14.6833 76.0902 14.082C76.4495 13.4807 76.9299 13.0113 77.5312 12.674C78.1399 12.3367 78.8072 12.168 79.5332 12.168C80.2592 12.168 80.9229 12.3367 81.5242 12.674C82.1329 13.0113 82.6095 13.4807 82.9542 14.082C83.3062 14.6833 83.4822 15.3617 83.4822 16.117C83.4822 16.8723 83.3062 17.5543 82.9542 18.163C82.6022 18.7643 82.1255 19.2337 81.5242 19.571C80.9229 19.9083 80.2592 20.077 79.5332 20.077ZM79.5332 18.361C80.1492 18.361 80.6405 18.1557 81.0072 17.745C81.3812 17.3343 81.5682 16.7917 81.5682 16.117C81.5682 15.435 81.3812 14.8923 81.0072 14.489C80.6405 14.0783 80.1492 13.873 79.5332 13.873C78.9099 13.873 78.4112 14.0747 78.0372 14.478C77.6705 14.8813 77.4872 15.4277 77.4872 16.117C77.4872 16.799 77.6705 17.3453 78.0372 17.756C78.4112 18.1593 78.9099 18.361 79.5332 18.361ZM88.4667 20L86.8607 17.085H86.4097V20H84.5287V12.278H87.6857C88.2943 12.278 88.8113 12.3843 89.2367 12.597C89.6693 12.8097 89.992 13.103 90.2047 13.477C90.4173 13.8437 90.5237 14.2543 90.5237 14.709C90.5237 15.2223 90.377 15.6807 90.0837 16.084C89.7977 16.4873 89.3723 16.7733 88.8077 16.942L90.5897 20H88.4667ZM86.4097 15.754H87.5757C87.9203 15.754 88.177 15.6697 88.3457 15.501C88.5217 15.3323 88.6097 15.094 88.6097 14.786C88.6097 14.4927 88.5217 14.2617 88.3457 14.093C88.177 13.9243 87.9203 13.84 87.5757 13.84H86.4097V15.754ZM94.5975 12.278C95.4115 12.278 96.1228 12.4393 96.7315 12.762C97.3401 13.0847 97.8095 13.5393 98.1395 14.126C98.4768 14.7053 98.6455 15.3763 98.6455 16.139C98.6455 16.8943 98.4768 17.5653 98.1395 18.152C97.8095 18.7387 97.3365 19.1933 96.7205 19.516C96.1118 19.8387 95.4041 20 94.5975 20H91.7045V12.278H94.5975ZM94.4765 18.372C95.1878 18.372 95.7415 18.1777 96.1375 17.789C96.5335 17.4003 96.7315 16.8503 96.7315 16.139C96.7315 15.4277 96.5335 14.874 96.1375 14.478C95.7415 14.082 95.1878 13.884 94.4765 13.884H93.5855V18.372H94.4765ZM101.578 13.785V15.347H104.097V16.799H101.578V18.493H104.427V20H99.6966V12.278H104.427V13.785H101.578ZM109.586 20L107.98 17.085H107.529V20H105.648V12.278H108.805C109.413 12.278 109.93 12.3843 110.356 12.597C110.788 12.8097 111.111 13.103 111.324 13.477C111.536 13.8437 111.643 14.2543 111.643 14.709C111.643 15.2223 111.496 15.6807 111.203 16.084C110.917 16.4873 110.491 16.7733 109.927 16.942L111.709 20H109.586ZM107.529 15.754H108.695C109.039 15.754 109.296 15.6697 109.465 15.501C109.641 15.3323 109.729 15.094 109.729 14.786C109.729 14.4927 109.641 14.2617 109.465 14.093C109.296 13.9243 109.039 13.84 108.695 13.84H107.529V15.754Z" fill="white"/>
<path d="M26.0417 19.7501C26.4174 19.7501 26.7778 19.8993 27.0434 20.165C27.3091 20.4307 27.4584 20.791 27.4584 21.1667C27.4584 21.5425 27.3091 21.9028 27.0434 22.1685C26.7778 22.4342 26.4174 22.5834 26.0417 22.5834C25.2555 22.5834 24.625 21.9459 24.625 21.1667C24.625 20.3805 25.2555 19.7501 26.0417 19.7501ZM14.7084 8.41675H17.0246L17.6905 9.83341H28.1667C28.3546 9.83341 28.5347 9.90804 28.6676 10.0409C28.8004 10.1737 28.875 10.3539 28.875 10.5417C28.875 10.6622 28.8396 10.7826 28.79 10.8959L26.2542 15.4788C26.0134 15.9109 25.5459 16.2084 25.0146 16.2084H19.7375L19.1 17.363L19.0788 17.448C19.0788 17.495 19.0974 17.54 19.1307 17.5732C19.1639 17.6064 19.2089 17.6251 19.2559 17.6251H27.4584V19.0417H18.9584C18.1721 19.0417 17.5417 18.4042 17.5417 17.6251C17.5417 17.3772 17.6055 17.1434 17.7117 16.9451L18.675 15.2097L16.125 9.83341H14.7084V8.41675ZM18.9584 19.7501C19.3341 19.7501 19.6944 19.8993 19.9601 20.165C20.2258 20.4307 20.375 20.791 20.375 21.1667C20.375 21.5425 20.2258 21.9028 19.9601 22.1685C19.6944 22.4342 19.3341 22.5834 18.9584 22.5834C18.1721 22.5834 17.5417 21.9459 17.5417 21.1667C17.5417 20.3805 18.1721 19.7501 18.9584 19.7501ZM25.3334 14.7917L27.3025 11.2501H18.3492L20.0209 14.7917H25.3334Z" fill="white"/>
<path d="M38.0638 47L35.7278 42.76H35.0718V47H32.3358V35.768H36.9278C37.8131 35.768 38.5651 35.9227 39.1838 36.232C39.8131 36.5413 40.2824 36.968 40.5918 37.512C40.9011 38.0453 41.0558 38.6427 41.0558 39.304C41.0558 40.0507 40.8424 40.7173 40.4158 41.304C39.9998 41.8907 39.3811 42.3067 38.5598 42.552L41.1518 47H38.0638ZM35.0718 40.824H36.7678C37.2691 40.824 37.6424 40.7013 37.8878 40.456C38.1438 40.2107 38.2718 39.864 38.2718 39.416C38.2718 38.9893 38.1438 38.6533 37.8878 38.408C37.6424 38.1627 37.2691 38.04 36.7678 38.04H35.0718V40.824ZM46.8373 47.112C46.0159 47.112 45.2799 46.9787 44.6293 46.712C43.9786 46.4453 43.4559 46.0507 43.0613 45.528C42.6773 45.0053 42.4746 44.376 42.4533 43.64H45.3653C45.4079 44.056 45.5519 44.376 45.7973 44.6C46.0426 44.8133 46.3626 44.92 46.7573 44.92C47.1626 44.92 47.4826 44.8293 47.7173 44.648C47.9519 44.456 48.0693 44.1947 48.0693 43.864C48.0693 43.5867 47.9733 43.3573 47.7813 43.176C47.5999 42.9947 47.3706 42.8453 47.0933 42.728C46.8266 42.6107 46.4426 42.4773 45.9413 42.328C45.2159 42.104 44.6239 41.88 44.1653 41.656C43.7066 41.432 43.3119 41.1013 42.9813 40.664C42.6506 40.2267 42.4853 39.656 42.4853 38.952C42.4853 37.9067 42.8639 37.0907 43.6213 36.504C44.3786 35.9067 45.3653 35.608 46.5813 35.608C47.8186 35.608 48.8159 35.9067 49.5733 36.504C50.3306 37.0907 50.7359 37.912 50.7893 38.968H47.8293C47.8079 38.6053 47.6746 38.3227 47.4293 38.12C47.1839 37.9067 46.8693 37.8 46.4852 37.8C46.1546 37.8 45.8879 37.8907 45.6853 38.072C45.4826 38.2427 45.3813 38.4933 45.3813 38.824C45.3813 39.1867 45.5519 39.4693 45.8932 39.672C46.2346 39.8747 46.7679 40.0933 47.4933 40.328C48.2186 40.5733 48.8053 40.808 49.2533 41.032C49.7119 41.256 50.1066 41.5813 50.4373 42.008C50.7679 42.4347 50.9333 42.984 50.9333 43.656C50.9333 44.296 50.7679 44.8773 50.4373 45.4C50.1173 45.9227 49.6479 46.3387 49.0293 46.648C48.4106 46.9573 47.6799 47.112 46.8373 47.112ZM61.5116 38.472C61.4263 38.0773 61.277 37.784 61.0636 37.592C60.8503 37.3893 60.5463 37.288 60.1516 37.288C59.5436 37.288 59.1063 37.5547 58.8396 38.088C58.573 38.6107 58.4343 39.4427 58.4236 40.584C58.6583 40.2107 58.9943 39.9173 59.4316 39.704C59.8796 39.4907 60.3703 39.384 60.9036 39.384C61.949 39.384 62.7863 39.7147 63.4156 40.376C64.0556 41.0373 64.3756 41.96 64.3756 43.144C64.3756 43.9227 64.2156 44.6053 63.8956 45.192C63.5863 45.7787 63.1276 46.2373 62.5196 46.568C61.9223 46.8987 61.213 47.064 60.3916 47.064C58.749 47.064 57.6076 46.552 56.9676 45.528C56.3276 44.4933 56.0076 43.0107 56.0076 41.08C56.0076 39.0533 56.3436 37.5493 57.0156 36.568C57.6983 35.576 58.7863 35.08 60.2796 35.08C61.0796 35.08 61.7516 35.24 62.2956 35.56C62.8503 35.8693 63.2663 36.28 63.5436 36.792C63.8316 37.304 64.0023 37.864 64.0556 38.472H61.5116ZM60.2476 41.544C59.789 41.544 59.405 41.6827 59.0956 41.96C58.797 42.2267 58.6476 42.6107 58.6476 43.112C58.6476 43.624 58.7863 44.024 59.0636 44.312C59.3516 44.6 59.757 44.744 60.2796 44.744C60.749 44.744 61.117 44.6053 61.3836 44.328C61.661 44.04 61.7996 43.6507 61.7996 43.16C61.7996 42.6587 61.6663 42.264 61.3996 41.976C61.133 41.688 60.749 41.544 60.2476 41.544ZM74.1471 37.704H69.1551V39.912C69.3685 39.6773 69.6671 39.4853 70.0511 39.336C70.4351 39.1867 70.8511 39.112 71.2991 39.112C72.0991 39.112 72.7605 39.2933 73.2831 39.656C73.8165 40.0187 74.2058 40.488 74.4511 41.064C74.6965 41.64 74.8191 42.264 74.8191 42.936C74.8191 44.184 74.4671 45.176 73.7631 45.912C73.0591 46.6373 72.0671 47 70.7871 47C69.9338 47 69.1925 46.856 68.5631 46.568C67.9338 46.2693 67.4485 45.8587 67.1071 45.336C66.7658 44.8133 66.5791 44.2107 66.5471 43.528H69.2191C69.2831 43.8587 69.4378 44.136 69.6831 44.36C69.9285 44.5733 70.2645 44.68 70.6911 44.68C71.1925 44.68 71.5658 44.52 71.8111 44.2C72.0565 43.88 72.1791 43.4533 72.1791 42.92C72.1791 42.3973 72.0511 41.9973 71.7951 41.72C71.5391 41.4427 71.1658 41.304 70.6751 41.304C70.3125 41.304 70.0138 41.3947 69.7791 41.576C69.5445 41.7467 69.3898 41.976 69.3151 42.264H66.6751V35.304H74.1471V37.704ZM77.8814 47.128C77.4014 47.128 77.0067 46.9893 76.6974 46.712C76.3987 46.424 76.2494 46.072 76.2494 45.656C76.2494 45.2293 76.3987 44.872 76.6974 44.584C77.0067 44.296 77.4014 44.152 77.8814 44.152C78.3507 44.152 78.7347 44.296 79.0334 44.584C79.3427 44.872 79.4974 45.2293 79.4974 45.656C79.4974 46.072 79.3427 46.424 79.0334 46.712C78.7347 46.9893 78.3507 47.128 77.8814 47.128ZM80.845 41C80.845 39.1653 81.197 37.72 81.901 36.664C82.6157 35.608 83.7623 35.08 85.341 35.08C86.9197 35.08 88.061 35.608 88.765 36.664C89.4797 37.72 89.837 39.1653 89.837 41C89.837 42.856 89.4797 44.312 88.765 45.368C88.061 46.424 86.9197 46.952 85.341 46.952C83.7623 46.952 82.6157 46.424 81.901 45.368C81.197 44.312 80.845 42.856 80.845 41ZM87.149 41C87.149 39.9227 87.0317 39.096 86.797 38.52C86.5623 37.9333 86.077 37.64 85.341 37.64C84.605 37.64 84.1197 37.9333 83.885 38.52C83.6503 39.096 83.533 39.9227 83.533 41C83.533 41.7253 83.5757 42.328 83.661 42.808C83.7463 43.2773 83.917 43.6613 84.173 43.96C84.4397 44.248 84.829 44.392 85.341 44.392C85.853 44.392 86.237 44.248 86.493 43.96C86.7597 43.6613 86.9357 43.2773 87.021 42.808C87.1063 42.328 87.149 41.7253 87.149 41ZM91.2825 41C91.2825 39.1653 91.6345 37.72 92.3385 36.664C93.0532 35.608 94.1998 35.08 95.7785 35.08C97.3572 35.08 98.4985 35.608 99.2025 36.664C99.9172 37.72 100.275 39.1653 100.275 41C100.275 42.856 99.9172 44.312 99.2025 45.368C98.4985 46.424 97.3572 46.952 95.7785 46.952C94.1998 46.952 93.0532 46.424 92.3385 45.368C91.6345 44.312 91.2825 42.856 91.2825 41ZM97.5865 41C97.5865 39.9227 97.4692 39.096 97.2345 38.52C96.9998 37.9333 96.5145 37.64 95.7785 37.64C95.0425 37.64 94.5572 37.9333 94.3225 38.52C94.0878 39.096 93.9705 39.9227 93.9705 41C93.9705 41.7253 94.0132 42.328 94.0985 42.808C94.1838 43.2773 94.3545 43.6613 94.6105 43.96C94.8772 44.248 95.2665 44.392 95.7785 44.392C96.2905 44.392 96.6745 44.248 96.9305 43.96C97.1972 43.6613 97.3732 43.2773 97.4585 42.808C97.5438 42.328 97.5865 41.7253 97.5865 41Z" fill="white"/>
<path d="M1 29H131" stroke="white"/>
</svg>
