<svg width="16" height="16" viewBox="0 0 16 16" fill="none" xmlns="http://www.w3.org/2000/svg">
<g clip-path="url(#clip0_202_149)">
<path d="M8.00001 0.0280151C6.23597 0.0299559 4.54473 0.731532 3.2973 1.97883C2.04987 3.22614 1.34813 4.91731 1.34601 6.68135C1.34601 8.39468 2.67268 11.076 5.28934 14.6507C5.60085 15.0774 6.00871 15.4246 6.47974 15.664C6.95077 15.9033 7.47166 16.028 8.00001 16.028C8.52836 16.028 9.04924 15.9033 9.52027 15.664C9.9913 15.4246 10.3992 15.0774 10.7107 14.6507C13.3273 11.076 14.654 8.39468 14.654 6.68135C14.6519 4.91731 13.9501 3.22614 12.7027 1.97883C11.4553 0.731532 9.76405 0.0299559 8.00001 0.0280151ZM8.00001 9.33335C7.47259 9.33335 6.95702 9.17695 6.51849 8.88393C6.07996 8.59092 5.73816 8.17444 5.53633 7.68717C5.3345 7.1999 5.28169 6.66372 5.38458 6.14644C5.48747 5.62916 5.74145 5.154 6.11439 4.78106C6.48733 4.40812 6.96248 4.15415 7.47977 4.05126C7.99705 3.94836 8.53323 4.00117 9.0205 4.203C9.50777 4.40484 9.92424 4.74663 10.2173 5.18516C10.5103 5.62369 10.6667 6.13927 10.6667 6.66668C10.6667 7.37393 10.3857 8.0522 9.88563 8.5523C9.38553 9.0524 8.70725 9.33335 8.00001 9.33335Z" fill="#292D32"/>
</g>
<defs>
<clipPath id="clip0_202_149">
<rect width="16" height="16" fill="white"/>
</clipPath>
</defs>
</svg>
