<svg width="16" height="18" viewBox="0 0 16 18" fill="none" xmlns="http://www.w3.org/2000/svg">
<path d="M3.63734 7.79C4.86359 10.62 6.83922 12.94 9.24914 14.38L11.1226 12.18C11.361 11.9 11.6931 11.82 11.9912 11.93C12.9449 12.3 13.9668 12.5 15.0312 12.5C15.2571 12.5 15.4737 12.6054 15.6334 12.7929C15.7931 12.9804 15.8828 13.2348 15.8828 13.5V17C15.8828 17.2652 15.7931 17.5196 15.6334 17.7071C15.4737 17.8946 15.2571 18 15.0312 18C11.1918 18 7.50966 16.2089 4.79477 13.0208C2.07989 9.8327 0.554688 5.50868 0.554688 1C0.554687 0.734784 0.644405 0.48043 0.804104 0.292893C0.963803 0.105357 1.1804 0 1.40625 0H4.38672C4.61257 0 4.82917 0.105357 4.98886 0.292893C5.14856 0.48043 5.23828 0.734784 5.23828 1C5.23828 2.25 5.40859 3.45 5.72367 4.57C5.81734 4.92 5.74922 5.31 5.51078 5.59L3.63734 7.79Z" fill="black"/>
</svg>
