<svg width="22" height="23" viewBox="0 0 22 23" fill="none" xmlns="http://www.w3.org/2000/svg">
<path d="M8.25 13.25C8.25 14.22 9.00001 15 9.92001 15H11.8C12.6 15 13.25 14.32 13.25 13.47C13.25 12.56 12.85 12.23 12.26 12.02L9.25 10.97C8.66 10.76 8.26001 10.44 8.26001 9.52C8.26001 8.68 8.90999 7.99001 9.70999 7.99001H11.59C12.51 7.99001 13.26 8.77001 13.26 9.74001M10.75 7V16M20.75 11.5C20.75 17.02 16.27 21.5 10.75 21.5C5.23 21.5 0.75 17.02 0.75 11.5C0.75 5.98 5.23 1.5 10.75 1.5M15.75 2.5V6.5M15.75 6.5H19.75M15.75 6.5L20.75 1.5" stroke="#999999" stroke-width="1.5" stroke-linecap="round" stroke-linejoin="round"/>
</svg>
